<?xml version="1.0" standalone="no"?>
<svg viewBox="0 0 200 200" xmlns="http://www.w3.org/2000/svg">
  <path fill="#FFFFFF" d="M42.8,-75.5C54.1,-67.5,61,-53.4,69.3,-39.8C77.7,-26.2,87.3,-13.1,89.1,1C90.9,15.1,84.8,30.3,75.6,42.3C66.4,54.4,54,63.3,40.9,69.2C27.8,75,13.9,77.8,0.4,77.1C-13.2,76.5,-26.3,72.4,-39.7,66.7C-53,61,-66.6,53.6,-74.8,42.2C-83,30.8,-86,15.4,-85,0.6C-84,-14.3,-79,-28.5,-70.6,-39.6C-62.2,-50.7,-50.3,-58.6,-38,-66C-25.6,-73.3,-12.8,-80.1,1.5,-82.6C15.7,-85.1,31.4,-83.4,42.8,-75.5Z" transform="translate(100 100)" />
</svg>
